
nColumns=19
nRows=65
DataType=double
version=3
OpenSimVersion=4.4-2022-10-11-798caa840
endheader
time	ground_force_calcn_r_vx	ground_force_calcn_r_vy	ground_force_calcn_r_vz	ground_force_calcn_r_px	ground_force_calcn_r_py	ground_force_calcn_r_pz	ground_force_calcn_r_mx	ground_force_calcn_r_my	ground_force_calcn_r_mz	ground_force_calcn_l_vx	ground_force_calcn_l_vy	ground_force_calcn_l_vz	ground_force_calcn_l_px	ground_force_calcn_l_py	ground_force_calcn_l_pz	ground_force_calcn_l_mx	ground_force_calcn_l_my	ground_force_calcn_l_mz
0	-77.1405	413.818	15.7757	0.141346	0	-0.207831	0.0524562	-0.2814	-0.0107276	0	0	0	0	0	0	0	0	0
0.01	-79.9721	431.779	13.9167	0.143567	0	-0.207098	0.06805170000000001	-0.367419	-0.0118423	0	0	0	0	0	0	0	0	0
0.02	-82.7684	451.018	11.7693	0.146385	0	-0.206171	0.0807469	-0.440002	-0.0114819	0	0	0	0	0	0	0	0	0
0.03	-85.3601	470.898	9.391209999999999	0.149369	0	-0.20518	0.08889809999999999	-0.490416	-0.00978046	0	0	0	0	0	0	0	0	0
0.04	-87.5809	490.751	6.88131	0.15247	0	-0.204153	0.09116920000000001	-0.510857	-0.00716324	0	0	0	0	0	0	0	0	0
0.05	-89.2891	509.957	4.36571	0.155645	0	-0.203114	0.0868897	-0.496253	-0.0042484	0	0	0	0	0	0	0	0	0
0.06	-90.36669999999999	527.982	1.9709	0.158858	0	-0.202086	0.0763556	-0.44612	-0.00166532	0	0	0	0	0	0	0	0	0
0.07000000000000001	-90.712	544.3869999999999	-0.201365	0.162077	0	-0.201088	0.0608177	-0.364984	0.000135005	0	0	0	0	0	0	0	0	0
0.08	-90.24290000000001	558.8339999999999	-2.09086	0.165273	0	-0.200134	0.0421929	-0.261282	0.00097758	0	0	0	0	0	0	0	0	0
0.09	-88.9228	571.11	-3.68277	0.168432	0	-0.19923	0.0226573	-0.145517	0.00093836	0	0	0	0	0	0	0	0	0
0.1	-86.783	581.163	-4.99431	0.171552	0	-0.198378	0.00418415	-0.0280201	0.000240795	0	0	0	0	0	0	0	0	0
0.11	-83.9243	589.1130000000001	-6.05821	0.174644	0	-0.197578	-0.0117137	0.0822256	-0.000845575	0	0	0	0	0	0	0	0	0
0.12	-80.4974	595.2430000000001	-6.90714	0.177732	0	-0.196831	-0.0240566	0.177888	-0.00206419	0	0	0	0	0	0	0	0	0
0.13	-76.67959999999999	599.96	-7.56107	0.180833	0	-0.196143	-0.0323614	0.253204	-0.00319103	0	0	0	0	0	0	0	0	0
0.14	-72.6525	603.745	-8.02243	0.183966	0	-0.195524	-0.0365264	0.303536	-0.00403332	0	0	0	0	0	0	0	0	0
0.15	-68.5812	607.086	-8.281779999999999	0.187136	0	-0.194987	-0.0366783	0.324679	-0.00442922	0	0	0	0	0	0	0	0	0
0.16	-64.5964	610.4160000000001	-8.32935	0.190336	0	-0.194545	-0.0330887	0.312678	-0.00426661	0	0	0	0	0	0	0	0	0
0.17	-60.7836	614.053	-8.167059999999999	0.193545	0	-0.194207	-0.0261773	0.26445	-0.00351725	0	0	0	0	0	0	0	0	0
0.18	-57.1811	618.176	-7.81719	0.196731	0	-0.193978	-0.0165125	0.178514	-0.00225741	0	0	0	0	0	0	0	0	0
0.19	-53.7975	622.841	-7.32034	0.199863	0	-0.193852	-0.00481918	0.055794	-0.0006557550000000001	0	0	0	0	0	0	0	0	0
0.2	-50.6284	628.013	-6.72487	0.202911	0	-0.193818	0.00805853	-0.09996090000000001	0.0010704	0	0	0	0	0	0	0	0	0
0.21	-47.6616	633.585	-6.07832	0.205859	0	-0.19386	0.0212473	-0.282449	0.00270968	0	0	0	0	0	0	0	0	0
0.22	-44.8798	639.391	-5.42369	0.208695	0	-0.193956	0.0339547	-0.483744	0.0041034	0	0	0	0	0	0	0	0	0
0.23	-42.2613	645.2089999999999	-4.79978	0.21142	0	-0.194085	0.045542	-0.695296	0.00517238	0	0	0	0	0	0	0	0	0
0.24	-39.7831	650.772	-4.24096	0.214041	0	-0.194225	0.0555459	-0.908621	0.00592132	0	0	0	0	0	0	0	0	0
0.25	-37.421	655.779	-3.77713	0.216575	0	-0.194353	0.0636758	-1.11588	0.00642718	0	0	0	0	0	0	0	0	0
0.26	-35.152	659.92	-3.43427	0.219043	0	-0.19445	0.0697957	-1.3103	0.00681888	0	0	0	0	0	0	0	0	0
0.27	-32.9557	662.9059999999999	-3.2323	0.22147	0	-0.194501	0.07390149999999999	-1.48653	0.00724829	0	0	0	0	0	0	0	0	0
0.28	-30.8155	664.494	-3.18127	0.223882	0	-0.194491	0.0761056	-1.64112	0.00785684	0	0	0	0	0	0	0	0	0
0.29	-28.719	664.522	-3.27982	0.226302	0	-0.194412	0.0766179	-1.77284	0.008750050000000001	0	0	0	0	0	0	0	0	0
0.3	-26.6591	662.922	-3.51597	0.228749	0	-0.194263	0.07571460000000001	-1.88277	0.00998574	0	0	0	0	0	0	0	0	0
0.31	-24.6313	659.72	-3.86961	0.231236	0	-0.19404	0.0737024	-1.97403	0.0115787	0	0	0	0	0	0	0	0	0
0.32	-22.6329	655.027	-4.31618	0.233763	0	-0.193748	0.0708778	-2.0513	0.0135166	0	0	0	0	0	0	0	0	0
0.33	-20.6638	649.027	-4.82892	0.236331	0	-0.193388	0.0675003	-2.12011	0.0157742	0	0	0	0	0	0	0	0	0
0.34	-18.7279	641.954	-5.3803	0.238936	0	-0.192968	0.0637799	-2.18624	0.0183232	0	0	0	0	0	0	0	0	0
0.35	-16.8323	634.078	-5.94313	0.24157	0	-0.192492	0.0598637	-2.25508	0.0211366	0	0	0	0	0	0	0	0	0
0.36	-14.9847	625.687	-6.49264	0.24423	0	-0.191965	0.0558347	-2.33138	0.0241922	0	0	0	0	0	0	0	0	0
0.37	-13.1919	617.081	-7.00965	0.246909	0	-0.191393	0.0517152	-2.41909	0.0274793	0	0	0	0	0	0	0	0	0
0.38	-11.4563	608.551	-7.48302	0.249602	0	-0.190781	0.0474644	-2.52128	0.0310029	0	0	0	0	0	0	0	0	0
0.39	-9.772309999999999	600.378	-7.91005	0.252305	0	-0.19013	0.0429706	-2.63997	0.0347819	0	0	0	0	0	0	0	0	0
0.4	-8.124309999999999	592.821	-8.295629999999999	0.255011	0	-0.189442	0.0380442	-2.77604	0.0388465	0	0	0	0	0	0	0	0	0
0.41	-6.48695	586.109	-8.65072	0.257711	0	-0.188721	0.0324196	-2.92918	0.0432334	0	0	0	0	0	0	0	0	0
0.42	-4.82854	580.448	-8.99123	0.260395	0	-0.187963	0.0257697	-3.09783	0.0479858	0	0	0	0	0	0	0	0	0
0.43	-3.11487	576.008	-9.33718	0.263051	0	-0.187173	0.0177333	-3.27928	0.0531576	0	0	0	0	0	0	0	0	0
0.44	-1.31213	572.921	-9.71096	0.265667	0	-0.186351	0.00794717	-3.47002	0.0588165	0	0	0	0	0	0	0	0	0
0.45	0.612161	571.274	-10.1346	0.268229	0	-0.185499	-0.00392835	-3.66598	0.06503539999999999	0	0	0	0	0	0	0	0	0
0.46	2.68868	571.117	-10.6259	0.270723	0	-0.184625	-0.0181859	-3.86297	0.07187200000000001	0	0	0	0	0	0	0	0	0
0.47	4.94403	572.466	-11.194	0.273136	0	-0.183738	-0.0350374	-4.05696	0.0793297	0	0	0	0	0	0	0	0	0
0.48	7.39849	575.308	-11.8346	0.27546	0	-0.182852	-0.0545831	-4.2444	0.08731120000000001	0	0	0	0	0	0	0	0	0
0.49	10.0662	579.5940000000001	-12.5284	0.277689	0	-0.181979	-0.0768074	-4.42244	0.0955949	0	0	0	0	0	0	0	0	0
0.5	12.9558	585.241	-13.2454	0.279821	0	-0.181133	-0.101588	-4.58894	0.103859	0	0	0	0	0	0	0	0	0
0.51	16.0708	592.123	-13.9522	0.281858	0	-0.180322	-0.128699	-4.74186	0.111733	0	0	0	0	0	0	0	0	0
0.52	19.4113	600.0599999999999	-14.6198	0.283802	0	-0.179553	-0.157813	-4.87847	0.118858	0	0	0	0	0	0	0	0	0
0.53	22.9767	608.814	-15.2304	0.285656	0	-0.178826	-0.188499	-4.99466	0.124949	0	0	0	0	0	0	0	0	0
0.54	26.7661	618.074	-15.7819	0.287426	0	-0.178134	-0.220187	-5.08449	0.129827	0	0	0	0	0	0	0	0	0
0.55	30.7773	627.4690000000001	-16.287	0.289119	0	-0.17747	-0.252129	-5.14026	0.133424	0	0	0	0	0	0	0	0	0
0.5600000000000001	35.0026	636.577	-16.7703	0.290744	0	-0.176819	-0.283345	-5.15307	0.135755	0	0	0	0	0	0	0	0	0
0.57	39.4287	644.97	-17.2597	0.292308	0	-0.17617	-0.312627	-5.11392	0.136851	0	0	0	0	0	0	0	0	0
0.58	44.0378	652.245	-17.7777	0.293823	0	-0.175509	-0.338588	-5.01484	0.136685	0	0	0	0	0	0	0	0	0
0.59	48.8093	658.056	-18.3337	0.295294	0	-0.174829	-0.359746	-4.85016	0.135128	0	0	0	0	0	0	0	0	0
0.6	53.7192	662.131	-18.9201	0.296729	0	-0.174124	-0.374619	-4.61747	0.131942	0	0	0	0	0	0	0	0	0
0.61	58.7391	664.268	-19.5104	0.298137	0	-0.173395	-0.381836	-4.3181	0.126828	0	0	0	0	0	0	0	0	0
0.62	63.8319	664.324	-20.0603	0.299529	0	-0.172645	-0.380253	-3.95744	0.119501	0	0	0	0	0	0	0	0	0
0.63	68.94580000000001	662.1950000000001	-20.5084	0.300915	0	-0.171881	-0.369046	-3.54453	0.109775	0	0	0	0	0	0	0	0	0
0.64	74.01260000000001	657.799	-20.7866	0.302307	0	-0.171108	-0.347753	-3.09072	0.0976673	-2.93934	21.586	-4.74239	0.722271	0	-0.275361	-0.0275192	0.202096	-0.0443999
